<svg width="256" height="256" class='logo' viewBox="0 0 378 378" fill="none" xmlns="http://www.w3.org/2000/svg">
  <rect width="378" height="378" rx="15.12" fill="#292755"/>
  <ellipse cx="150.732" cy="132.535" rx="10.8717" ry="12.7306" fill="#E27034"/>
  <ellipse cx="150.732" cy="132.535" rx="5.85398" ry="6.85492" fill="white"/>
  <ellipse cx="223.488" cy="132.535" rx="10.8717" ry="12.7306" fill="#E27034"/>
  <ellipse cx="223.488" cy="132.535" rx="5.85398" ry="6.85492" fill="white"/>
  <path d="M223.07 135.718C223.07 155.323 207.201 166.32 187.11 166.32C167.019 166.32 150.314 155.323 150.314 135.718C150.314 116.112 157.422 95.3225 187.11 95.3225C216.798 95.3225 223.07 116.112 223.07 135.718Z" fill="#E27034"/>
  <path d="M213.871 143.062C213.871 149.282 209.481 161.179 187.737 161.179C165.994 161.179 161.604 149.282 161.604 143.062C161.604 136.843 158.676 126.415 187.737 126.415C216.798 126.415 213.871 136.843 213.871 143.062Z" fill="white"/>
  <ellipse cx="175.402" cy="119.804" rx="13.7987" ry="16.158" fill="white"/>
  <ellipse cx="187.946" cy="114.174" rx="13.3805" ry="7.09974" fill="white"/>
  <ellipse cx="198.818" cy="119.804" rx="13.7987" ry="16.158" fill="white"/>
  <path d="M210.944 118.959C210.944 125.105 206.361 130.087 200.709 130.087C195.056 130.087 188.093 125.105 188.093 118.959C188.093 112.813 185.97 108.053 197.843 108.053C209.716 108.053 210.944 112.813 210.944 118.959Z" fill="#292755"/>
  <path d="M163.276 119.201C163.276 125.484 167.859 130.576 173.511 130.576C179.164 130.576 186.127 125.484 186.127 119.201C186.127 112.919 188.25 108.053 176.377 108.053C164.504 108.053 163.276 112.919 163.276 119.201Z" fill="#292755"/>
  <path d="M182.955 112.786C182.955 112.786 182.955 112.46 187.11 112.46C191.265 112.46 191.265 112.786 191.265 112.786V115.398C191.265 115.398 191.888 114.962 187.11 114.962C182.332 114.962 182.955 115.398 182.955 115.398V112.786Z" fill="#292755"/>
  <path d="M186.065 84.005C169.841 86.8169 164.112 98.9238 163.276 104.626C183.347 96.8929 194.218 103.688 205.299 99.9392C214.164 96.9398 215.265 91.191 214.707 88.6915C211.028 92.4407 205.369 90.2537 202.999 88.6915C213.035 86.0671 216.101 76.3503 216.38 71.82C213.035 74.71 202.289 81.1931 186.065 84.005Z" fill="#E27034"/>
  <path d="M157.673 88.4677C159.881 92.7413 157.59 104.969 156.168 110.548C159.513 111.498 166.203 111.545 166.203 104.138C166.203 96.73 160.517 90.6045 157.673 88.4677Z" fill="#E27034"/>
  <path d="M174.566 145.266C174.566 145.266 176.238 149.672 187.528 149.672C198.818 149.672 200.909 145.266 200.909 145.266" stroke="#292755" stroke-width="3.78" stroke-linecap="round"/>
  <path d="M186.085 132.098C186.94 131.057 188.534 131.057 189.39 132.098C190.537 133.494 189.544 135.595 187.737 135.595C185.931 135.595 184.938 133.494 186.085 132.098Z" fill="#292755"/>
  <rect width="12.5894" height="26.1426" transform="matrix(0.921869 0.387502 -0.293088 0.956085 197.448 104.272)" fill="white" fill-opacity="0.25"/>
  <rect width="12.5894" height="26.1426" transform="matrix(0.921869 0.387502 -0.293088 0.956085 172.36 104.272)" fill="white" fill-opacity="0.25"/>
  <path d="M155.13 292.03H148.153V251.72H155.13V292.03ZM169.332 262.074L169.526 265.535C171.741 262.859 174.648 261.521 178.247 261.521C184.485 261.521 187.66 265.092 187.771 272.235V292.03H181.043V272.622C181.043 270.721 180.628 269.319 179.797 268.414C178.985 267.491 177.647 267.03 175.783 267.03C173.07 267.03 171.049 268.257 169.72 270.712V292.03H162.992V262.074H169.332ZM205.213 283.503L211.553 262.074H218.502L208.12 292.03H202.278L191.813 262.074H198.79L205.213 283.503ZM235.528 292.584C231.265 292.584 227.804 291.246 225.146 288.569C222.507 285.875 221.187 282.294 221.187 277.827V276.997C221.187 274.007 221.759 271.34 222.904 268.996C224.067 266.633 225.691 264.797 227.776 263.486C229.862 262.176 232.188 261.521 234.753 261.521C238.832 261.521 241.979 262.822 244.194 265.424C246.427 268.027 247.544 271.709 247.544 276.471V279.184H227.97C228.173 281.657 228.995 283.614 230.434 285.053C231.892 286.493 233.72 287.213 235.916 287.213C238.998 287.213 241.508 285.967 243.446 283.475L247.073 286.936C245.874 288.726 244.268 290.12 242.256 291.116C240.263 292.095 238.02 292.584 235.528 292.584ZM234.725 266.919C232.88 266.919 231.385 267.565 230.24 268.857C229.115 270.149 228.395 271.949 228.081 274.256H240.899V273.758C240.752 271.506 240.152 269.808 239.1 268.663C238.048 267.501 236.59 266.919 234.725 266.919ZM269.582 283.89C269.582 282.691 269.083 281.777 268.087 281.15C267.108 280.522 265.475 279.968 263.186 279.488C260.898 279.009 258.987 278.399 257.455 277.661C254.096 276.037 252.417 273.684 252.417 270.601C252.417 268.017 253.505 265.858 255.683 264.123C257.861 262.388 260.63 261.521 263.989 261.521C267.57 261.521 270.458 262.406 272.655 264.178C274.87 265.95 275.977 268.248 275.977 271.072H269.249C269.249 269.78 268.769 268.71 267.81 267.861C266.85 266.993 265.576 266.559 263.989 266.559C262.513 266.559 261.304 266.901 260.362 267.584C259.439 268.267 258.978 269.18 258.978 270.325C258.978 271.358 259.412 272.161 260.279 272.733C261.147 273.305 262.9 273.887 265.539 274.477C268.179 275.05 270.246 275.742 271.741 276.554C273.255 277.347 274.371 278.307 275.091 279.433C275.829 280.559 276.198 281.925 276.198 283.531C276.198 286.225 275.082 288.412 272.848 290.092C270.615 291.753 267.69 292.584 264.072 292.584C261.617 292.584 259.43 292.141 257.511 291.255C255.591 290.369 254.096 289.151 253.026 287.6C251.955 286.05 251.42 284.38 251.42 282.589H257.954C258.046 284.177 258.646 285.404 259.753 286.271C260.861 287.12 262.328 287.545 264.155 287.545C265.927 287.545 267.274 287.213 268.197 286.548C269.12 285.865 269.582 284.979 269.582 283.89ZM290.512 254.793V262.074H295.8V267.058H290.512V283.78C290.512 284.924 290.733 285.755 291.176 286.271C291.638 286.77 292.45 287.019 293.613 287.019C294.388 287.019 295.172 286.927 295.966 286.742V291.947C294.434 292.371 292.957 292.584 291.536 292.584C286.368 292.584 283.784 289.732 283.784 284.029V267.058H278.856V262.074H283.784V254.793H290.512Z" fill="white"/>
  <path d="M305.157 284.942C306.413 284.942 307.382 285.302 308.064 286.022C308.747 286.724 309.089 287.61 309.089 288.68C309.089 289.732 308.747 290.609 308.064 291.31C307.382 291.993 306.413 292.335 305.157 292.335C303.958 292.335 303.007 291.993 302.306 291.31C301.605 290.627 301.254 289.751 301.254 288.68C301.254 287.61 301.595 286.724 302.278 286.022C302.961 285.302 303.921 284.942 305.157 284.942Z" fill="#E27034"/>
  <path d="M59.9724 175.796L72.6616 224.385L85.3047 175.796H103.023V242.98H89.4114V224.8L90.6572 196.791L77.2297 242.98H68.0012L54.5737 196.791L55.8196 224.8V242.98H42.2537V175.796H59.9724ZM111.791 216.402C111.791 208.834 113.575 202.897 117.143 198.591C120.711 194.284 125.649 192.131 131.955 192.131C138.322 192.131 143.291 194.284 146.859 198.591C150.427 202.897 152.211 208.865 152.211 216.494V219.678C152.211 227.276 150.443 233.213 146.905 237.489C143.367 241.765 138.415 243.903 132.047 243.903C125.649 243.903 120.665 241.765 117.097 237.489C113.559 233.182 111.791 227.215 111.791 219.586V216.402ZM124.895 219.678C124.895 228.599 127.279 233.059 132.047 233.059C136.446 233.059 138.815 229.337 139.153 221.893L139.199 216.402C139.199 211.849 138.569 208.481 137.307 206.297C136.046 204.082 134.262 202.974 131.955 202.974C129.74 202.974 128.002 204.082 126.741 206.297C125.51 208.481 124.895 211.849 124.895 216.402V219.678ZM172.33 193.054L172.699 197.991C175.652 194.084 179.512 192.131 184.281 192.131C192.863 192.131 197.277 198.145 197.523 210.173V242.98H184.419V211.142C184.419 208.312 183.988 206.266 183.127 205.005C182.296 203.713 180.82 203.067 178.697 203.067C176.329 203.067 174.483 204.282 173.16 206.712V242.98H160.056V193.054H172.33ZM223.456 223.739L219.949 227.661V242.98H206.89V172.105H219.949V210.403L221.564 208.004L230.608 193.054H246.158L231.669 213.633L247.542 242.98H232.592L223.456 223.739ZM271.352 243.903C264.645 243.903 259.416 241.903 255.663 237.904C251.91 233.905 250.034 228.184 250.034 220.739V216.771C250.034 208.896 251.756 202.821 255.202 198.545C258.647 194.269 263.584 192.131 270.013 192.131C276.289 192.131 281.011 194.146 284.179 198.176C287.348 202.175 288.963 208.112 289.024 215.987V222.4H263.046C263.23 226.092 264.046 228.799 265.491 230.522C266.937 232.213 269.167 233.059 272.182 233.059C276.55 233.059 280.196 231.567 283.118 228.584L288.24 236.474C286.64 238.689 284.318 240.488 281.272 241.873C278.227 243.226 274.92 243.903 271.352 243.903ZM263.138 213.264H276.197V212.064C276.135 209.081 275.643 206.82 274.72 205.282C273.797 203.743 272.197 202.974 269.921 202.974C267.645 202.974 265.984 203.79 264.938 205.42C263.923 207.05 263.323 209.665 263.138 213.264ZM311.772 221.247L318.417 193.054H332.352L315.925 250.455C313.464 258.915 308.835 263.144 302.036 263.144C300.467 263.144 298.683 262.852 296.684 262.268V252.07L298.207 252.116C300.237 252.116 301.759 251.716 302.775 250.917C303.821 250.147 304.605 248.794 305.128 246.856L306.143 243.488L291.747 193.054H305.774L311.772 221.247Z" fill="#E27034"/>
</svg>
